<svg width="354" height="226" viewBox="0 0 354 226" fill="none" xmlns="http://www.w3.org/2000/svg">
<mask id="mask0_0_160" style="mask-type:alpha" maskUnits="userSpaceOnUse" x="0" y="0" width="354" height="226">
<rect width="354" height="226" fill="black"/>
</mask>
<g mask="url(#mask0_0_160)">
<mask id="mask1_0_160" style="mask-type:alpha" maskUnits="userSpaceOnUse" x="0" y="39" width="354" height="187">
<path d="M4.04451 130.001L0 132.621V226H354V63.1959L335.527 67.0566C330.694 68.0666 326.406 70.8283 323.487 74.8103L315.808 85.2869C309.236 94.2536 295.779 94.0487 289.483 84.886L286.386 80.3785C280.03 71.1289 267.126 69.2871 258.436 76.3893C253.141 80.7168 245.148 78.2716 243.181 71.7225L235.553 46.3317C233.074 38.0811 221.698 37.2993 218.114 45.1332C213.279 55.7006 201.779 61.5204 190.401 59.1582L188.312 58.7245C181.624 57.3362 174.928 61.0517 172.567 67.4607L157.886 107.312C154.655 116.084 145.646 121.323 136.424 119.793L128.914 118.546C118.003 116.736 107.071 121.641 101.169 130.995C93.37 143.356 80.9693 152.102 66.7077 155.3L65.3429 155.607C61.8861 156.382 58.6676 157.98 55.961 160.266C49.9208 165.366 40.6329 162.622 38.3349 155.058L34.0557 140.972C30.1892 128.245 15.2077 122.768 4.04451 130.001Z" fill="url(#paint0_radial_0_160)"/>
</mask>
<g mask="url(#mask1_0_160)">
<path opacity="0.6" d="M4.04451 130.001L0 132.621V226H354V63.1959L335.527 67.0566C330.694 68.0666 326.406 70.8283 323.487 74.8103L315.808 85.2869C309.236 94.2536 295.779 94.0487 289.483 84.886L286.386 80.3785C280.03 71.1289 267.126 69.2871 258.436 76.3893C253.141 80.7168 245.148 78.2716 243.181 71.7225L235.553 46.3317C233.074 38.0811 221.698 37.2993 218.114 45.1332C213.279 55.7006 201.779 61.5204 190.401 59.1582L188.312 58.7245C181.624 57.3362 174.928 61.0517 172.567 67.4607L157.886 107.312C154.655 116.084 145.646 121.323 136.424 119.793L128.914 118.546C118.003 116.736 107.071 121.641 101.169 130.995C93.37 143.356 80.9693 152.102 66.7077 155.3L65.3429 155.607C61.8861 156.382 58.6676 157.98 55.961 160.266C49.9208 165.366 40.6329 162.622 38.3349 155.058L34.0557 140.972C30.1892 128.245 15.2077 122.768 4.04451 130.001Z" fill="black"/>
</g>
<path d="M0 132.171L3.6853 129.794C4.04679 129.56 4.22753 129.444 4.36928 129.356C15.4086 122.491 29.9604 127.817 33.9604 140.186C34.0117 140.345 34.0745 140.55 34.2 140.962L38.3261 154.488C40.6319 162.047 49.9099 164.792 55.958 159.706V159.706C58.6668 157.428 61.8845 155.836 65.3388 155.064L66.7552 154.748C80.9879 151.569 93.3718 142.86 101.176 130.54V130.54C107.076 121.228 117.973 116.347 128.85 118.144L136.417 119.394C145.648 120.92 154.662 115.682 157.908 106.907L172.552 67.3175C174.923 60.9083 181.622 57.1937 188.314 58.5774L190.446 59.0182C201.804 61.3666 213.279 55.5642 218.121 45.0249V45.0249C221.712 37.2082 233.066 37.9909 235.55 46.2264L243.171 71.4884C245.146 78.0365 253.135 80.4844 258.44 76.1667V76.1667C267.139 69.0862 280.027 70.9263 286.397 80.1583L289.484 84.6332C295.79 93.7734 309.223 93.9782 315.806 85.0346L322.521 75.9095C323.468 74.6224 323.942 73.9788 324.448 73.392C326.975 70.4634 330.298 68.3304 334.012 67.2515C334.757 67.0353 335.539 66.8725 337.103 66.5469L354 63.0301" stroke="url(#paint1_linear_0_160)" stroke-linecap="round"/>
<path d="M0 132.171L3.6853 129.794C4.04679 129.56 4.22753 129.444 4.36928 129.356C15.4086 122.491 29.9604 127.817 33.9604 140.186C34.0117 140.345 34.0745 140.55 34.2 140.962L38.3261 154.488C40.6319 162.047 49.9099 164.792 55.958 159.706V159.706C58.6668 157.428 61.8845 155.836 65.3388 155.064L66.7552 154.748C80.9879 151.569 93.3718 142.86 101.176 130.54V130.54C107.076 121.228 117.973 116.347 128.85 118.144L136.417 119.394C145.648 120.92 154.662 115.682 157.908 106.907L172.552 67.3175C174.923 60.9083 181.622 57.1937 188.314 58.5774L190.446 59.0182C201.804 61.3666 213.279 55.5642 218.121 45.0249V45.0249C221.712 37.2082 233.066 37.9909 235.55 46.2264L243.171 71.4884C245.146 78.0365 253.135 80.4844 258.44 76.1667V76.1667C267.139 69.0862 280.027 70.9263 286.397 80.1583L289.484 84.6332C295.79 93.7734 309.223 93.9782 315.806 85.0346L322.521 75.9095C323.468 74.6224 323.942 73.9788 324.448 73.392C326.975 70.4634 330.298 68.3304 334.012 67.2515C334.757 67.0353 335.539 66.8725 337.103 66.5469L354 63.0301" stroke="black" stroke-linecap="round" style="mix-blend-mode:screen"/>
</g>
<defs>
<radialGradient id="paint0_radial_0_160" cx="0" cy="0" r="1" gradientUnits="userSpaceOnUse" gradientTransform="translate(177 59.9632) rotate(90) scale(139.199 177)">
<stop stop-opacity="0.1"/>
<stop offset="1" stop-opacity="0"/>
</radialGradient>
<linearGradient id="paint1_linear_0_160" x1="1.66869" y1="187.131" x2="354" y2="187.131" gradientUnits="userSpaceOnUse">
<stop stop-opacity="0.4"/>
<stop offset="1"/>
</linearGradient>
</defs>
</svg>
